<svg xmlns="http://www.w3.org/2000/svg">
  <symbol id="jobs" viewBox="0 0 64 64">
    <path fill="none" stroke="currentColor" stroke-linecap="round" stroke-linejoin="round" stroke-width="4" d="M18 22h28v24H18z"/>
    <path fill="none" stroke="currentColor" stroke-linecap="round" stroke-linejoin="round" stroke-width="4" d="M25 22v-6h14v6M18 31h28"/>
    <circle cx="46" cy="46" r="8" fill="none" stroke="currentColor" stroke-width="4"/>
    <path fill="none" stroke="currentColor" stroke-linecap="round" stroke-width="4" d="m52 52 6 6"/>
  </symbol>
  <symbol id="data" viewBox="0 0 64 64">
    <ellipse cx="32" cy="15" rx="20" ry="8" fill="none" stroke="currentColor" stroke-width="4"/>
    <path fill="none" stroke="currentColor" stroke-width="4" d="M12 15v34c0 4.4 9 8 20 8s20-3.6 20-8V15"/>
    <path fill="none" stroke="currentColor" stroke-width="4" d="M12 32c0 4.4 9 8 20 8s20-3.6 20-8"/>
  </symbol>
  <symbol id="workspace" viewBox="0 0 64 64">
    <path fill="none" stroke="currentColor" stroke-linejoin="round" stroke-width="4" d="M8 18h18l6 8h24v28H8z"/>
    <path fill="none" stroke="currentColor" stroke-linecap="round" stroke-width="4" d="M15 38h34"/>
  </symbol>
  <symbol id="latex" viewBox="0 0 64 64">
    <path fill="none" stroke="currentColor" stroke-linejoin="round" stroke-width="4" d="M18 6h20l12 12v40H18z"/>
    <path fill="none" stroke="currentColor" stroke-linejoin="round" stroke-width="4" d="M38 6v14h12"/>
    <text x="32" y="43" fill="currentColor" font-family="ui-monospace, SFMono-Regular, Menlo, monospace" font-size="13" font-weight="700" text-anchor="middle">TeX</text>
  </symbol>
  <symbol id="pdf" viewBox="0 0 64 64">
    <path fill="none" stroke="currentColor" stroke-linejoin="round" stroke-width="4" d="M18 6h20l12 12v40H18z"/>
    <path fill="none" stroke="currentColor" stroke-linejoin="round" stroke-width="4" d="M38 6v14h12"/>
    <path fill="none" stroke="currentColor" stroke-linecap="round" stroke-linejoin="round" stroke-width="4" d="M22 41s4-9 10-9 10 9 10 9-4 9-10 9-10-9-10-9Z"/>
    <circle cx="32" cy="41" r="3" fill="currentColor"/>
  </symbol>
  <symbol id="browser" viewBox="0 0 64 64">
    <rect x="8" y="12" width="48" height="40" rx="4" fill="none" stroke="currentColor" stroke-width="4"/>
    <path fill="none" stroke="currentColor" stroke-width="4" d="M8 24h48"/>
    <circle cx="17" cy="18" r="2" fill="currentColor"/>
    <circle cx="25" cy="18" r="2" fill="currentColor"/>
    <path fill="none" stroke="currentColor" stroke-linecap="round" stroke-width="4" d="M21 39h22"/>
  </symbol>
  <symbol id="docs" viewBox="0 0 64 64">
    <path fill="none" stroke="currentColor" stroke-linejoin="round" stroke-width="4" d="M15 10h24l10 10v34H15z"/>
    <path fill="none" stroke="currentColor" stroke-linejoin="round" stroke-width="4" d="M39 10v12h10"/>
    <path fill="none" stroke="currentColor" stroke-linecap="round" stroke-width="4" d="M23 32h18M23 41h18"/>
  </symbol>
</svg>
